<svg width="349" height="107" viewBox="0 0 349 107" fill="none" xmlns="http://www.w3.org/2000/svg">
<path d="M88.5838 87.2798L97.5166 92.3592L86.3506 95.9873L88.5838 87.2798Z" fill="#FFFFCC"/>
<path d="M4.20117 2.00009L18.2012 9.00009" stroke="#FFDBB8" stroke-width="4" stroke-linecap="round"/>
<path d="M55.2496 38.2681L60.3978 33.8441L66.295 34.652L63.3344 29.1171L67.1119 23.7725L60.1667 25.0193L56.3653 20.102L54.6957 26.4681L49.1212 28.6355L54.7077 31.5991L55.2496 38.2681Z" fill="#ADC2EB"/>
<path d="M35.2012 66.0001L21.2012 76.0001" stroke="#CCF2FF" stroke-width="4" stroke-linecap="round"/>
<path d="M33.2012 78.0001L23.2012 64.0001" stroke="#CCF2FF" stroke-width="4" stroke-linecap="round"/>
<path d="M9.67725 26.3272L14.8881 34.3091L5.21082 40.1141L0 32.1322L9.67725 26.3272Z" fill="#ADC2EB"/>
<path d="M235.976 68.0507C240.938 65.1482 242.179 60.7945 239.698 54.9894C237.216 49.6682 238.457 45.5563 243.42 42.6538" stroke="#ADC2EB" stroke-width="3" stroke-linecap="round"/>
<path d="M159.302 62.6085L149.625 72.7673L139.203 63.3341L148.136 53.1754L159.302 62.6085Z" fill="#ADC2EB"/>
<path d="M329.201 61.0001L347.201 68.0001" stroke="#99FF99" stroke-width="3" stroke-linecap="round"/>
<path d="M99.1855 5.88927C98.3396 3.74128 95.7618 2.708 93.4277 3.58136C91.0936 4.45473 89.8872 6.90402 90.7331 9.05201C91.5789 11.2 94.1568 12.2333 96.4909 11.3599C98.8249 10.4865 100.031 8.03726 99.1855 5.88927Z" fill="#CCF2FF"/>
<path d="M323.043 87.4737C325.502 87.3481 327.408 85.6242 327.3 83.6231C327.193 81.6221 325.112 80.1018 322.653 80.2274C320.194 80.353 318.288 82.077 318.396 84.078C318.504 86.079 320.584 87.5994 323.043 87.4737Z" fill="#FFC2C2"/>
<path d="M258.308 98.8898L270.962 95.2617L273.196 103.244L260.541 106.872L258.308 98.8898Z" fill="#CCF2FF"/>
<path d="M192.801 71.316L189.823 39.3885" stroke="#ADC2EB" stroke-width="3" stroke-linecap="round"/>
<path d="M260.736 18.8926L264.019 19.4318L264.889 22.2075L266.372 19.4893L269.437 19.3346L267.143 16.9832L267.914 14.4772L265.066 15.3258L262.278 13.8805L263.148 16.6562L260.736 18.8926Z" fill="#CCF2FF"/>
<path d="M292.879 46.2786L289.773 49.8032L284.565 49.6259L287.385 54.0783L285.742 58.3788L290.257 57.0804L293.873 60.1077L294.055 55.0314L298.597 53.0078L294.185 51.4055L292.879 46.2786Z" fill="#FFDBB8"/>
<path d="M91.9661 57L77.2012 65.744" stroke="#99FF99" stroke-width="3" stroke-linecap="round"/>
<path d="M312.201 25.8664C317.164 23.9314 318.156 20.787 315.179 16.4332C312.201 12.5632 313.194 9.41884 318.156 7.00009" stroke="#99FF99" stroke-width="4" stroke-linecap="round"/>
<circle cx="173.201" cy="53" r="38" fill="#FFECC8" stroke="#E2E4F3" stroke-width="4"/>
<path d="M153.201 72.8H193.201V32.8H153.201V72.8Z" fill="#FFECC8"/>
</svg>
